# xmcd
#
# Track frame offsets: 
#        150
#        20705
#        36705
#        61038
#        79465
#        100563
#        125038
#        145655
#        164210
#        184245
#
# Disc length: 2809 seconds
#
# Revision: 0
# Processed by: cddbd v1.5.2PL0 Copyright (c) Steve Scherf et al.
# Submitted via: ExactAudioCopyFreeDBPlugin 1.0
#
DISCID=920af70a
DTITLE=Various Artist - Du noi nho co muon mang
DYEAR=1900
DGENRE=
TTITLE0=Song Nguyen - Trong noi nho muon mang
TTITLE1=Thai Hien - Nhu mot loi chia tay
TTITLE2=Song Nguyen - Giot nang ben them
TTITLE3=Vu Khanh - Hoa vang may do
TTITLE4=Song Nguyen - O lai 
TTITLE5=Song Nguyen - Kiep gia trang
TTITLE6=Thai Hien - Doc mo
TTITLE7=Song Nguyen - Co don
TTITLE8=Vu Khanh - Em den tham anh dem 30
TTITLE9=Song Nguyen - Tam su goi ve dau
EXTD=
EXTT0=
EXTT1=
EXTT2=
EXTT3=
EXTT4=
EXTT5=
EXTT6=
EXTT7=
EXTT8=
EXTT9=
PLAYORDER=
